<svg xmlns="http://www.w3.org/2000/svg" viewBox="0 0 1200 690" role="img" aria-labelledby="t d">
<title id="t">Celestial Church of Christ rainbow emblem</title>
<desc id="d">Traditional Celestial Church of Christ rainbow emblem with eye, crown and cross, on a transparent background.</desc>
<defs>
  <path id="arc1" d="M75 575 A525 525 0 0 1 1125 575"/>
  <path id="arc2" d="M145 575 A455 455 0 0 1 1055 575"/>
  <path id="arc3" d="M215 575 A385 385 0 0 1 985 575"/>
  <path id="arc4" d="M285 575 A315 315 0 0 1 915 575"/>
</defs>
<path d="M75 575A525 525 0 0 1 1125 575" fill="none" stroke="#d51f36" stroke-width="86"/>
<path d="M158 575A442 442 0 0 1 1042 575" fill="none" stroke="#713b91" stroke-width="80"/>
<path d="M235 575A365 365 0 0 1 965 575" fill="none" stroke="#5eb9d7" stroke-width="76"/>
<path d="M307 575A293 293 0 0 1 893 575" fill="none" stroke="#75b84b" stroke-width="72"/>
<path d="M375 575A225 225 0 0 1 825 575" fill="none" stroke="#f3df3b" stroke-width="68"/>
<path d="M439 575A161 161 0 0 1 761 575" fill="none" stroke="#d51f36" stroke-width="64"/>
<g fill="#fff" font-family="Arial,Helvetica,sans-serif" font-weight="700" text-anchor="middle">
<text font-size="48"><textPath href="#arc1" startOffset="50%">CELESTIAL CHURCH OF CHRIST</textPath></text>
<text font-size="33"><textPath href="#arc2" startOffset="50%">EGLISE DU CHRISTIANISME CELESTE</textPath></text>
<text font-size="31"><textPath href="#arc3" startOffset="50%">IJO MIMO TI KRISTI LATI ORUN WA</textPath></text>
<text font-size="30" fill="#fff7d0" stroke="#a76c12" stroke-width="1"><textPath href="#arc4" startOffset="50%">AGUN WIWE OLON TON</textPath></text>
</g>
<g transform="translate(600 500)">
<path d="M-54-36 Q0-72 54-36 Q0 0-54-36Z" fill="#f6c7ae" stroke="#332016" stroke-width="4"/>
<ellipse cy="-37" rx="32" ry="18" fill="#fff" stroke="#222" stroke-width="3"/>
<circle cy="-37" r="13" fill="#4aa7d8"/><circle cy="-37" r="6" fill="#111"/><circle cx="-5" cy="-43" r="3" fill="#fff"/>
<path d="M-48 12 L-34-20 L-15-6 L0-25 L15-6 L34-20 L48 12 Z" fill="#cda23b" stroke="#6e4315" stroke-width="4"/>
<path d="M-45 12 Q0 30 45 12 L40 28 Q0 40-40 28Z" fill="#cda23b" stroke="#6e4315" stroke-width="4"/>
<circle cx="-28" cy="7" r="5" fill="#b72734"/><circle cx="0" cy="1" r="5" fill="#b72734"/><circle cx="28" cy="7" r="5" fill="#b72734"/>
<path d="M-12 36 H12 V65 H35 V86 H12 V160 H-12 V86 H-35 V65 H-12Z" fill="#20499a" stroke="#d8b34e" stroke-width="7"/>
</g>
</svg>